<?xml version="1.0" encoding="UTF-8" standalone="no"?>
<!-- Created with Inkscape (http://www.inkscape.org/) -->

<svg
   xmlns:dc="http://purl.org/dc/elements/1.1/"
   xmlns:cc="http://creativecommons.org/ns#"
   xmlns:rdf="http://www.w3.org/1999/02/22-rdf-syntax-ns#"
   xmlns:svg="http://www.w3.org/2000/svg"
   xmlns="http://www.w3.org/2000/svg"
   xmlns:sodipodi="http://sodipodi.sourceforge.net/DTD/sodipodi-0.dtd"
   xmlns:inkscape="http://www.inkscape.org/namespaces/inkscape"
   width="116.71577mm"
   height="116.71577mm"
   viewBox="0 0 116.71577 116.71577"
   version="1.1"
   id="svg89315"
   sodipodi:docname="ec4_path.svg"
   inkscape:version="0.92.2 2405546, 2018-03-11">
  <defs
     id="defs89309" />
  <sodipodi:namedview
     id="base"
     pagecolor="#ffffff"
     bordercolor="#666666"
     borderopacity="1.0"
     inkscape:pageopacity="0.0"
     inkscape:pageshadow="2"
     inkscape:zoom="1"
     inkscape:cx="-25.714286"
     inkscape:cy="160"
     inkscape:document-units="mm"
     inkscape:current-layer="layer1"
     showgrid="false"
     fit-margin-top="1"
     fit-margin-left="1"
     fit-margin-right="1"
     fit-margin-bottom="1"
     inkscape:window-width="1600"
     inkscape:window-height="860"
     inkscape:window-x="0"
     inkscape:window-y="20"
     inkscape:window-maximized="1" />
  <metadata
     id="metadata89312">
    <rdf:RDF>
      <cc:Work
         rdf:about="">
        <dc:format>image/svg+xml</dc:format>
        <dc:type
           rdf:resource="http://purl.org/dc/dcmitype/StillImage" />
        <dc:title></dc:title>
      </cc:Work>
    </rdf:RDF>
  </metadata>
  <g
     inkscape:label="Layer 1"
     inkscape:groupmode="layer"
     id="layer1"
     transform="translate(-25.552824,-54.189736)">
    <g
       id="g177292">
      <path
         style="opacity:1;fill:#008080;fill-opacity:1;stroke:none;stroke-width:0.70131916"
         d="M 33.566016,55.189736 H 134.25541 c 3.88531,0 7.01319,3.127884 7.01319,7.013192 V 162.89232 c 0,3.8853 -3.12788,7.01319 -7.01319,7.01319 H 33.566016 c -3.885308,0 -7.013192,-3.12789 -7.013192,-7.01319 V 62.202928 c 0,-3.885308 3.127884,-7.013192 7.013192,-7.013192 z"
         id="rect89208"
         inkscape:connector-curvature="0" />
      <g
         id="g89181"
         clip-path="url(#cp7)"
         transform="matrix(0.9740544,0,0,0.9740544,-294.40639,59.501671)"
         style="stroke:#ffffff;stroke-width:1.02663671">
        <clipPath
           id="clipPath89177">
          <polygon
             id="polygon89175"
             points="348.313,13 348.313,97 432.313,97 432.313,13 " />
        </clipPath>
        <path
           style="fill:none;stroke:#ffffff;stroke-width:1.02663671;stroke-opacity:1"
           d="m 420.313,14.75 -0.125,0.25 -0.375,0.8125 -0.625,1.375 -0.188,0.4375 -0.062,0.125 -0.188,0.375 -0.437,0.9375 -0.313,0.6875 -0.062,0.125 -0.313,0.625 -0.312,0.625 -0.25,0.5625 -0.125,0.25 -0.375,0.75 -0.313,0.6875 -0.125,0.1875 -0.187,0.5 -0.438,0.6875 -0.312,0.75 -0.063,0.0625 -0.312,0.625 -0.313,0.625 -0.312,0.5625 -0.188,0.25 -0.312,0.6875 -0.188,0.3125 -0.25,0.4375 -0.062,0.125 -0.125,0.25 -0.625,1.0625 -0.313,0.5 -0.5,0.9375 v 0 0 l -0.562,0.875 -0.375,0.5625 -0.5,0.875 -0.25,0.3125 -0.125,0.25 -0.313,0.5 -0.125,0.125 -0.375,0.5 -0.187,0.3125 v 0 l -0.063,0.0625 -0.437,0.625 -0.125,0.125 -0.125,0.25 -0.313,0.3125 -0.187,0.25 -0.125,0.125 -0.125,0.1875 -0.063,0.125 -0.062,0.0625 -0.188,0.25 -0.125,0.0625 -0.25,0.3125 -0.125,0.0625 -0.312,0.3125 -0.313,0.3125 -0.062,0.125 -0.313,0.3125 -0.562,0.375 -0.25,0.25 -0.25,0.125 -0.5,0.375 -0.125,0.0625 -0.063,0.0625 -0.25,0.0625 -0.125,0.125 -0.312,0.125 -0.25,0.0625 -0.438,0.1875 h -0.062 v 0 h -0.125 l -0.25,0.0625 -0.25,0.0625 H 401.625 401.5 401 400.875 400.75 L 400.25,42 h -0.062 -0.063 l -0.25,-0.0625 h -0.062 l -0.25,-0.0625 h -0.125 L 399,41.6875 398.75,41.625 398.125,41.375 398,41.25 397.313,40.9375 396.625,40.5 l -0.5,-0.25 -0.25,-0.1875 -1.437,-1 v 0 0 0 L 393.625,38.5 393,38.0625 392.813,37.875 392.5,37.625 391.563,37 391.125,36.6875 390.563,36.25 390.125,35.9375 389.5,35.5 l -0.75,-0.5625 -0.312,-0.125 -0.688,-0.5 -0.437,-0.25 -1.25,-0.6875 -0.125,-0.0625 -0.063,-0.0625 -0.25,-0.125 L 385,32.8125 384.438,32.5625 384,32.375 383.125,32.0625 383,32 l -0.312,-0.0625 -0.875,-0.25 -0.25,-0.0625 -0.375,-0.0625 -0.563,-0.125 -0.5,-0.0625 H 380 h -0.437 -0.125 -0.125 -0.438 -0.187 -0.125 l -0.375,0.0625 H 378 L 377.75,31.5 h -0.187 l -0.313,0.0625 -0.25,0.0625 -0.437,0.125 -0.438,0.1875 -0.187,0.0625 -0.063,0.0625 -0.187,0.0625 -0.25,0.125 -0.313,0.125 -0.187,0.125 -0.25,0.125 -0.188,0.125 -0.062,0.0625 -0.375,0.1875 -0.188,0.1875 -0.187,0.125 v 0 l -0.063,0.0625 -0.312,0.25 v 0.0625 L 373.25,33.75 373,33.9375 372.938,34 l -0.125,0.0625 -0.188,0.25 -0.062,0.0625 -0.313,0.3125 -0.062,0.0625 v 0.0625 l -0.313,0.3125 -0.187,0.25 -0.125,0.125 v 0 0.0625 l -0.313,0.375 -0.187,0.3125 -0.25,0.3125 -0.125,0.25 -0.063,0.125 -0.187,0.3125 -0.125,0.25 -0.125,0.125 v 0.0625 l -0.063,0.125 -0.312,0.5625 -0.125,0.3125 -0.188,0.375 -0.062,0.1875 -0.188,0.375 -0.187,0.5625 -0.125,0.3125 -0.25,0.5625 -0.188,0.6875 -0.062,0.1875 -0.125,0.4375 -0.313,1 -0.125,0.5625 -0.25,0.875 -0.312,1.375 v 0.0625 0 l -0.063,0.25 -0.187,1.1875 -0.125,1.0625 -0.063,0.375 V 49.5 l -0.187,1.875 v 0.5625 l -0.063,0.6875 -0.062,1.5 V 54.8125 55.5 l 0.062,1.5625 0.063,0.625 V 58.25 l 0.187,1.875 v 0.4375 l 0.063,0.3125 0.125,1.125 0.187,1.125 0.063,0.25 V 63.4375 63.5 l 0.312,1.3125 0.25,0.875 0.125,0.5625 0.313,1.0625 0.125,0.375 0.062,0.25 0.188,0.625 0.125,0.4375 0.062,0.125 0.188,0.375 0.187,0.5 0.188,0.375 0.062,0.1875 0.188,0.4375 0.125,0.3125 0.312,0.5625 0.063,0.0625 V 72 l 0.125,0.1875 0.125,0.1875 0.187,0.3125 0.063,0.1875 0.125,0.1875 0.25,0.375 0.187,0.25 0.313,0.4375 v 0 0 l 0.125,0.1875 0.187,0.1875 0.313,0.375 0.062,0.125 0.313,0.3125 0.312,0.25 0.125,0.125 0.313,0.3125 0.312,0.3125 h 0.063 l 0.187,0.1875 0.188,0.125 0.375,0.25 0.25,0.125 0.25,0.1875 0.187,0.0625 0.313,0.1875 0.25,0.125 0.187,0.0625 h 0.063 l 0.187,0.125 0.438,0.125 L 377,78 l 0.25,0.0625 0.313,0.0625 0.187,0.0625 H 378 l 0.188,0.0625 h 0.375 0.125 l 0.187,0.0625 h 0.438 0.125 0.125 L 380,78.25 h 0.125 l 0.5,-0.0625 0.563,-0.0625 0.375,-0.125 h 0.25 l 0.875,-0.25 0.312,-0.125 0.125,-0.0625 0.875,-0.3125 0.438,-0.1875 0.562,-0.25 0.625,-0.3125 0.25,-0.125 h 0.063 l 0.125,-0.0625 1.25,-0.75 0.437,-0.25 0.688,-0.4375 0.312,-0.1875 0.75,-0.5 0.625,-0.5 0.438,-0.25 L 391.125,73 391.563,72.6875 392.5,72 l 0.313,-0.25 0.187,-0.125 0.625,-0.4375 0.813,-0.625 v 0 0 0 l 1.437,-1 0.25,-0.125 0.5,-0.3125 0.688,-0.4375 0.687,-0.3125 0.125,-0.0625 0.625,-0.25 0.25,-0.125 0.438,-0.125 0.5,-0.125 h 0.187 l 0.063,-0.0625 h 0.062 l 0.5,-0.0625 h 0.125 0.125 l 0.5,0.0625 h 0.125 0.063 l 0.5,0.0625 0.125,0.0625 v 0 h 0.062 l 0.438,0.125 0.25,0.0625 0.312,0.1875 0.125,0.0625 0.25,0.125 0.063,0.0625 0.125,0.0625 0.5,0.3125 0.25,0.1875 0.25,0.1875 0.25,0.1875 0.312,0.25 0.313,0.3125 0.062,0.0625 0.313,0.3125 0.062,0.0625 0.25,0.25 0.063,0.0625 0.062,0.0625 0.25,0.25 V 71 l 0.25,0.3125 0.125,0.0625 0.063,0.125 0.25,0.25 0.187,0.25 0.313,0.375 0.125,0.1875 0.125,0.125 0.437,0.625 0.063,0.0625 v 0.0625 l 0.187,0.25 0.375,0.5625 0.125,0.0625 0.313,0.5625 0.125,0.1875 0.25,0.3125 0.5,0.9375 0.375,0.5 0.562,0.875 v 0.0625 0 l 0.5,0.875 0.313,0.5 0.625,1.0625 0.125,0.25 0.062,0.125 0.25,0.5 0.188,0.3125 L 414,82 l 0.188,0.3125 0.312,0.5 0.313,0.625 0.375,0.75 0.312,0.6875 0.438,0.75 0.187,0.4375 0.125,0.25 0.375,0.6875 v 0.0625 l 0.313,0.6875 0.125,0.25 0.25,0.5 0.312,0.6875 0.313,0.5625 0.062,0.1875 0.313,0.6875 0.437,0.875 0.188,0.375 L 419,92 l 0.188,0.4375 0.625,1.375 0.375,0.8125 0.125,0.25"
           id="polyline89179"
           inkscape:connector-curvature="0" />
      </g>
      <g
         style="fill:#b3b3b3"
         transform="matrix(0.70131916,0,0,0.70131916,-21.036681,-235.51059)"
         id="g89191">
        <g
           id="g4352"
           style="fill:#b3b3b3;fill-opacity:1;stroke:none">
          <path
             inkscape:connector-curvature="0"
             sodipodi:nodetypes="ccccc"
             style="fill:#b3b3b3;fill-opacity:1;fill-rule:evenodd;stroke:none;stroke-width:1px;stroke-linecap:butt;stroke-linejoin:miter;stroke-opacity:1"
             d="m 82.59375,496.625 v 1 h 132 v -1 z"
             id="path3163" />
          <path
             inkscape:connector-curvature="0"
             style="fill:#b3b3b3;fill-opacity:1;fill-rule:evenodd;stroke:none;stroke-width:0.40000002pt;marker-start:none"
             d="m 82.598214,497.13004 2,-2 -7,2 7,2 z"
             id="path4358" />
          <path
             inkscape:connector-curvature="0"
             style="fill:#b3b3b3;fill-opacity:1;fill-rule:evenodd;stroke:none;stroke-width:0.40000002pt;marker-start:none"
             d="m 214.59821,497.13004 -2,2 7,-2 -7,-2 z"
             id="path4360" />
        </g>
        <g
           id="g4342"
           style="fill:#b3b3b3;fill-opacity:1;stroke:none">
          <path
             style="fill:#b3b3b3;fill-opacity:1;fill-rule:evenodd;stroke:none;stroke-width:1px;stroke-linecap:butt;stroke-linejoin:miter;stroke-opacity:1"
             d="m 148.78125,425.59375 v 142.375 h 1 v -142.375 z"
             id="path3161"
             sodipodi:nodetypes="ccccc"
             inkscape:connector-curvature="0" />
          <path
             style="fill:#b3b3b3;fill-opacity:1;fill-rule:evenodd;stroke:none;stroke-width:0.40000002pt;marker-start:none"
             d="m 149.28571,425.60326 2,2 -2,-7 -2,7 z"
             id="path4348"
             inkscape:connector-curvature="0" />
          <path
             style="fill:#b3b3b3;fill-opacity:1;fill-rule:evenodd;stroke:none;stroke-width:0.40000002pt;marker-start:none"
             d="m 149.28571,567.9604 -2,-2 2,7 2,-7 z"
             id="path4350"
             inkscape:connector-curvature="0" />
        </g>
      </g>
      <path
         style="color:#000000;font-style:normal;font-variant:normal;font-weight:normal;font-stretch:normal;font-size:medium;line-height:normal;font-family:sans-serif;font-variant-ligatures:normal;font-variant-position:normal;font-variant-caps:normal;font-variant-numeric:normal;font-variant-alternates:normal;font-feature-settings:normal;text-indent:0;text-align:start;text-decoration:none;text-decoration-line:none;text-decoration-style:solid;text-decoration-color:#000000;letter-spacing:normal;word-spacing:normal;text-transform:none;writing-mode:lr-tb;direction:ltr;text-orientation:mixed;dominant-baseline:auto;baseline-shift:baseline;text-anchor:start;white-space:normal;shape-padding:0;clip-rule:nonzero;display:inline;overflow:visible;visibility:visible;opacity:1;isolation:auto;mix-blend-mode:normal;color-interpolation:sRGB;color-interpolation-filters:linearRGB;solid-color:#000000;solid-opacity:1;vector-effect:none;fill:#b3b3b3;fill-opacity:1;fill-rule:nonzero;stroke:none;stroke-width:0.26499999;stroke-linecap:butt;stroke-linejoin:miter;stroke-miterlimit:4;stroke-dasharray:none;stroke-dashoffset:0;stroke-opacity:1;color-rendering:auto;image-rendering:auto;shape-rendering:auto;text-rendering:auto;enable-background:accumulate"
         d="M 109.86328,84.298828 53.25,130.58594 l 0.167969,0.20508 56.613281,-46.287114 z"
         id="path177221"
         inkscape:connector-curvature="0" />
      <path
         style="color:#000000;font-style:normal;font-variant:normal;font-weight:normal;font-stretch:normal;font-size:medium;line-height:normal;font-family:sans-serif;font-variant-ligatures:normal;font-variant-position:normal;font-variant-caps:normal;font-variant-numeric:normal;font-variant-alternates:normal;font-feature-settings:normal;text-indent:0;text-align:start;text-decoration:none;text-decoration-line:none;text-decoration-style:solid;text-decoration-color:#000000;letter-spacing:normal;word-spacing:normal;text-transform:none;writing-mode:lr-tb;direction:ltr;text-orientation:mixed;dominant-baseline:auto;baseline-shift:baseline;text-anchor:start;white-space:normal;shape-padding:0;clip-rule:nonzero;display:inline;overflow:visible;visibility:visible;opacity:1;isolation:auto;mix-blend-mode:normal;color-interpolation:sRGB;color-interpolation-filters:linearRGB;solid-color:#000000;solid-opacity:1;vector-effect:none;fill:#cccccc;fill-opacity:1;fill-rule:nonzero;stroke:none;stroke-width:0.26458332;stroke-linecap:butt;stroke-linejoin:miter;stroke-miterlimit:4;stroke-dasharray:2.11666654, 1.05833327;stroke-dashoffset:0;stroke-opacity:1;color-rendering:auto;image-rendering:auto;shape-rendering:auto;text-rendering:auto;enable-background:accumulate"
         d="m 109.81641,86.517578 h 0.26367 v -2.117187 h -0.26367 z m 0,3.175781 h 0.26367 v -2.117187 h -0.26367 z m 0,3.173829 h 0.26367 V 90.75 h -0.26367 z m 0,3.175781 h 0.26367 v -2.117188 h -0.26367 z m 0,3.173828 h 0.26367 v -2.115235 h -0.26367 z m 0,3.175783 h 0.26367 v -2.11719 h -0.26367 z m 0,3.17578 h 0.26367 v -2.11719 h -0.26367 z m 0,3.17383 h 0.26367 V 106.625 h -0.26367 z m 0,3.17578 h 0.26367 v -2.11719 h -0.26367 z m 0,3.17383 h 0.26367 v -2.11524 h -0.26367 z m 0,3.17578 h 0.26367 v -2.11719 h -0.26367 z m 0,3.17578 h 0.26367 v -2.11719 h -0.26367 z m 0,3.17383 h 0.26367 V 122.5 h -0.26367 z m 0,3.17578 h 0.26367 v -2.11719 h -0.26367 z m 0,3.17383 h 0.26367 v -2.11524 h -0.26367 z m 0,3.17578 h 0.26367 v -2.11719 h -0.26367 z m 0,3.17578 h 0.26367 v -2.11719 h -0.26367 z m 0,3.17383 h 0.26367 V 138.375 h -0.26367 z"
         id="path177225"
         inkscape:connector-curvature="0" />
      <text
         id="text177229"
         y="121.35413"
         x="63.376453"
         style="font-style:normal;font-weight:normal;font-size:10.58333302px;line-height:1.25;font-family:sans-serif;letter-spacing:0px;word-spacing:0px;fill:#000000;fill-opacity:1;stroke:none;stroke-width:0.26458332"
         xml:space="preserve"><tspan
           style="stroke-width:0.26458332"
           y="130.7179"
           x="63.376453"
           id="tspan177227"
           sodipodi:role="line"></tspan></text>
      <g
         aria-label="p"
         style="font-style:normal;font-weight:normal;font-size:10.58333302px;line-height:1.25;font-family:sans-serif;letter-spacing:0px;word-spacing:0px;fill:#000000;fill-opacity:1;stroke:none;stroke-width:0.26458332"
         id="text177233">
        <path
           d="m 57.514488,120.56057 q 0,-0.26105 -0.105833,-0.35277 -0.105833,-0.0988 -0.381,-0.11289 l 0.02117,-0.20461 q 0.09172,-0.0141 0.860777,-0.23989 l 0.127,0.0706 0.0635,0.43039 q 0.289278,-0.49389 0.924278,-0.49389 1.291167,0 1.291167,1.63689 0,0.86078 -0.409222,1.31939 -0.409223,0.45156 -1.185334,0.45156 -0.331611,0 -0.599722,-0.11289 v 1.11478 q 0.176389,0.13405 0.486833,0.1905 l -0.02117,0.23988 h -1.559278 l 0.02822,-0.254 q 0.275167,-0.0353 0.458611,-0.17638 z m 1.453445,-0.59972 q -0.846667,0 -0.846667,1.32645 v 1.34055 q 0.254,0.14111 0.663222,0.14111 0.409222,0 0.656167,-0.38805 0.254,-0.38806 0.254,-1.0795 0,-0.69145 -0.176389,-1.016 -0.176389,-0.32456 -0.550333,-0.32456 z"
           style="font-style:normal;font-variant:normal;font-weight:normal;font-stretch:normal;font-size:7.05555534px;font-family:Caladea;-inkscape-font-specification:Caladea;fill:#ffffff;stroke-width:0.26458332"
           id="path177294" />
      </g>
      <g
         aria-label="q"
         style="font-style:normal;font-weight:normal;font-size:10.58333302px;line-height:1.25;font-family:sans-serif;letter-spacing:0px;word-spacing:0px;fill:#000000;fill-opacity:1;stroke:none;stroke-width:0.26458332"
         id="text177237">
        <path
           d="m 92.397145,94.490307 q -1.333499,0 -1.333499,-1.686278 0,-0.790222 0.352777,-1.255889 0.352778,-0.465666 1.107722,-0.465666 0.423334,0 0.790223,0.331611 l 0.112889,-0.268111 h 0.373944 v 4.360333 q 0.176389,0.127 0.493889,0.1905 l -0.02822,0.239889 H 92.70759 l 0.02822,-0.254 q 0.282222,-0.04939 0.465667,-0.176389 V 94.02464 q -0.296334,0.465667 -0.804334,0.465667 z m -0.592666,-2.617611 q -0.07056,0.239889 -0.09172,0.437444 -0.01411,0.1905 -0.01411,0.500945 0,0.310444 0.02117,0.522111 0.02117,0.211666 0.09172,0.430389 0.134056,0.430389 0.585611,0.430389 0.458612,0 0.627945,-0.395112 0.176389,-0.395111 0.176389,-1.051277 V 91.73864 q -0.345722,-0.359833 -0.656167,-0.359833 -0.310444,0 -0.486833,0.127 -0.176389,0.119944 -0.254,0.366889 z"
           style="font-style:normal;font-variant:normal;font-weight:normal;font-stretch:normal;font-size:7.05555534px;font-family:Caladea;-inkscape-font-specification:Caladea;fill:#ffffff;stroke-width:0.26458332"
           id="path177297" />
      </g>
      <g
         aria-label="r"
         style="font-style:normal;font-weight:normal;font-size:10.58333302px;line-height:1.25;font-family:sans-serif;letter-spacing:0px;word-spacing:0px;fill:#000000;fill-opacity:1;stroke:none;stroke-width:0.26458332"
         id="text177241">
        <path
           d="m 114.05769,83.144974 q 0.254,0 0.43745,0.148166 0.1905,0.148167 0.1905,0.373945 0,0.225777 -0.10584,0.359833 -0.0988,0.134056 -0.24694,0.134056 -0.14111,0 -0.24695,-0.05644 -0.10583,-0.0635 -0.13405,-0.162278 0.0705,-0.07055 0.0705,-0.197555 0,-0.211667 -0.19755,-0.211667 -0.19756,0 -0.40217,0.289278 -0.19755,0.282222 -0.19755,0.606778 v 1.636889 q 0.1905,0.127 0.55738,0.197555 l -0.0282,0.239889 h -1.62278 l 0.0282,-0.254 q 0.28927,-0.04939 0.46566,-0.183444 V 84.05514 q 0,-0.261055 -0.11289,-0.352778 -0.10583,-0.09878 -0.381,-0.112888 l 0.0212,-0.204611 q 0.0917,-0.01411 0.86078,-0.239889 l 0.127,0.0635 0.0706,0.493888 q 0.37395,-0.557388 0.84667,-0.557388 z"
           style="font-style:normal;font-variant:normal;font-weight:normal;font-stretch:normal;font-size:7.05555534px;font-family:Caladea;-inkscape-font-specification:Caladea;fill:#ffffff;stroke-width:0.26458332"
           id="path177300" />
      </g>
      <g
         aria-label="r'"
         style="font-style:normal;font-weight:normal;font-size:10.58333302px;line-height:1.25;font-family:sans-serif;letter-spacing:0px;word-spacing:0px;fill:#000000;fill-opacity:1;stroke:none;stroke-width:0.26458332"
         id="text177245">
        <path
           d="m 114.05769,138.17827 q 0.254,0 0.43745,0.14816 0.1905,0.14817 0.1905,0.37395 0,0.22578 -0.10584,0.35983 -0.0988,0.13406 -0.24694,0.13406 -0.14111,0 -0.24695,-0.0564 -0.10583,-0.0635 -0.13405,-0.16227 0.0705,-0.0706 0.0705,-0.19756 0,-0.21167 -0.19755,-0.21167 -0.19756,0 -0.40217,0.28928 -0.19755,0.28222 -0.19755,0.60678 v 1.63689 q 0.1905,0.127 0.55738,0.19755 l -0.0282,0.23989 h -1.62278 l 0.0282,-0.254 q 0.28927,-0.0494 0.46566,-0.18344 v -2.01084 q 0,-0.26105 -0.11289,-0.35277 -0.10583,-0.0988 -0.381,-0.11289 l 0.0212,-0.20461 q 0.0917,-0.0141 0.86078,-0.23989 l 0.127,0.0635 0.0706,0.49389 q 0.37395,-0.55739 0.84667,-0.55739 z"
           style="font-style:normal;font-variant:normal;font-weight:normal;font-stretch:normal;font-size:7.05555534px;font-family:Caladea;-inkscape-font-specification:Caladea;fill:#ffffff;stroke-width:0.26458332"
           id="path177303" />
        <path
           d="m 115.4128,138.24177 q -0.16933,-0.93134 -0.16933,-1.10772 0,-0.17639 0.0847,-0.26106 0.0917,-0.0917 0.23284,-0.0917 0.14816,0 0.23988,0.0917 0.0917,0.0847 0.0917,0.20461 0,0.20461 -0.127,0.92428 l -0.0423,0.23989 z"
           style="font-style:normal;font-variant:normal;font-weight:normal;font-stretch:normal;font-size:7.05555534px;font-family:Caladea;-inkscape-font-specification:Caladea;fill:#ffffff;stroke-width:0.26458332"
           id="path177305" />
      </g>
    </g>
  </g>
</svg>
